# xmcd CD database file
#
# Track frame offsets:
#	150
#	19385
#	40500
#
# Disc length: 794 seconds
#
# Revision: 4
# Processed by: cddbd v1.5.1PL0 Copyright (c) Steve Scherf et al.
# Submitted via: CDex 1.51
#
DISCID=1a031803
DTITLE=松田聖子 - あなたのすべてになりたい
DYEAR=1992
DGENRE=JPop
TTITLE0=あなたのすべてになりたい
TTITLE1=Shinin' Shinin'
TTITLE2=あなたのすべてになりたい (オリジナル・カラオケ)
EXTD=YEAR: 1992
EXTT0=
EXTT1=
EXTT2=
PLAYORDER=
